# xmcd
#
# Track frame offsets: 
#        150
#        25983
#        41582
#        60179
#        76382
#        105403
#        126299
#        145030
#        157797
#        174294
#
# Disc length: 2734 seconds
#
# Revision: 0
# Processed by: cddbd v1.5.2PL0 Copyright (c) Steve Scherf et al.
# Submitted via: ExactAudioCopy v0.95b4
#
DISCID=6d0aac0a
DTITLE=Joe Bonamassa - Dust Bowl Deluxe [CD2] Ten Years Of Joe
DYEAR=2011
DGENRE=Blues - Rock
TTITLE0=Blue and Evil
TTITLE1=Ball Peen Hammer
TTITLE2=High Water Everywhere
TTITLE3=You Upset Me Baby
TTITLE4=Ballad of John Henry
TTITLE5=Lonesome Road Blues
TTITLE6=If Heartaches Were Nickels
TTITLE7=So Its Like That
TTITLE8=Miss You Hate You
TTITLE9=Had to Cry Today
EXTD=
EXTT0=
EXTT1=
EXTT2=
EXTT3=
EXTT4=
EXTT5=
EXTT6=
EXTT7=
EXTT8=
EXTT9=
PLAYORDER=
